<svg xmlns="http://www.w3.org/2000/svg" width="278.154" height="272.154" viewBox="0 0 278.154 272.154">
    <g id="Group_7" data-name="Group 7" transform="translate(44.077 -880.923)">
        <g id="Group_3" data-name="Group 3" transform="translate(-187 96)">
            <rect id="Rectangle_11" data-name="Rectangle 11" width="39" height="39"
                  transform="translate(356.5 858.923) rotate(45)" fill="#1b96f3"/>
            <rect id="Rectangle_12" data-name="Rectangle 12" width="39" height="39"
                  transform="translate(393.5 894.923) rotate(45)" fill="#1b96f3"/>
            <rect id="Rectangle_13" data-name="Rectangle 13" width="39" height="39"
                  transform="translate(317.5 894.923) rotate(45)" fill="#1b96f3"/>
            <rect id="Rectangle_14" data-name="Rectangle 14" width="39" height="39"
                  transform="translate(356.5 929.923) rotate(45)" fill="#1b96f3"/>
        </g>
        <g id="Group_5" data-name="Group 5" transform="translate(-334 96)">
            <rect id="Rectangle_11-2" data-name="Rectangle 11" width="39" height="39"
                  transform="translate(356.5 858.923) rotate(45)" fill="#1b96f3"/>
            <rect id="Rectangle_12-2" data-name="Rectangle 12" width="39" height="39"
                  transform="translate(393.5 894.923) rotate(45)" fill="#1b96f3"/>
            <rect id="Rectangle_13-2" data-name="Rectangle 13" width="39" height="39"
                  transform="translate(317.5 894.923) rotate(45)" fill="#1b96f3"/>
            <rect id="Rectangle_14-2" data-name="Rectangle 14" width="39" height="39"
                  transform="translate(356.5 929.923) rotate(45)" fill="#1b96f3"/>
        </g>
        <g id="Group_4" data-name="Group 4" transform="translate(-262 22)">
            <rect id="Rectangle_11-3" data-name="Rectangle 11" width="39" height="39"
                  transform="translate(356.5 858.923) rotate(45)" fill="#1b96f3"/>
            <rect id="Rectangle_12-3" data-name="Rectangle 12" width="39" height="39"
                  transform="translate(393.5 894.923) rotate(45)" fill="#1b96f3"/>
            <rect id="Rectangle_13-3" data-name="Rectangle 13" width="39" height="39"
                  transform="translate(317.5 894.923) rotate(45)" fill="#1b96f3"/>
            <rect id="Rectangle_14-3" data-name="Rectangle 14" width="39" height="39"
                  transform="translate(356.5 929.923) rotate(45)" fill="#1b96f3"/>
        </g>
        <g id="Group_6" data-name="Group 6" transform="translate(-261 168)">
            <rect id="Rectangle_11-4" data-name="Rectangle 11" width="39" height="39"
                  transform="translate(356.5 858.923) rotate(45)" fill="#1b96f3"/>
            <rect id="Rectangle_12-4" data-name="Rectangle 12" width="39" height="39"
                  transform="translate(393.5 894.923) rotate(45)" fill="#1b96f3"/>
            <rect id="Rectangle_13-4" data-name="Rectangle 13" width="39" height="39"
                  transform="translate(317.5 894.923) rotate(45)" fill="#1b96f3"/>
            <rect id="Rectangle_14-4" data-name="Rectangle 14" width="39" height="39"
                  transform="translate(356.5 929.923) rotate(45)" fill="#1b96f3"/>
        </g>
    </g>
</svg>
